<?xml version="1.0" encoding="UTF-8"?>
<svg id="Capa_1" data-name="Capa 1" xmlns="http://www.w3.org/2000/svg" viewBox="0 0 302.29 24.18">
  <defs>
    <style>
      .cls-1 {
        fill: #e1ce50;
      }
    </style>
  </defs>
  <path class="cls-1" d="M20.82,23.34c-5.24,.56-10.05,.84-14.44,.84-2.19,0-3.81-.51-4.84-1.54-1.03-1.03-1.54-2.64-1.54-4.84V7.05C0,4.7,.53,2.99,1.59,1.93,2.66,.87,4.37,.34,6.72,.34h12.09V5.04H8.06c-1.34,0-2.01,.67-2.01,2.01v10.75c0,.52,.15,.92,.45,1.23s.71,.45,1.23,.45c2.57,0,4.92-.06,7.05-.17v-4.87h-4.37v-4.03h10.41v12.93Z"/>
  <path class="cls-1" d="M47.38,.34h6.04V17.46c0,2.35-.53,4.06-1.6,5.12-1.06,1.06-2.77,1.6-5.12,1.6h-7.72c-2.35,0-4.06-.53-5.12-1.6-1.06-1.06-1.6-2.77-1.6-5.12V.34h6.04V17.46c0,1.34,.67,2.02,2.01,2.02h5.04c1.34,0,2.01-.67,2.01-2.02V.34Z"/>
  <path class="cls-1" d="M69.9,23.84h-6.55L72.25,.34h6.72l8.9,23.51h-6.55l-1.51-4.2h-8.39l-1.51,4.2Zm3.02-8.56h5.37l-2.69-7.89-2.69,7.89Z"/>
  <path class="cls-1" d="M91.11,.5h6.38l5.54,11.42L108.57,.5h6.38l-8.9,17.29v6.21h-6.04v-6.21L91.11,.5Z"/>
  <path class="cls-1" d="M126.39,24.01h-6.55L128.74,.5h6.72l8.9,23.51h-6.55l-1.51-4.2h-8.39l-1.51,4.2Zm3.02-8.56h5.37l-2.69-7.89-2.69,7.89Z"/>
  <path class="cls-1" d="M154.45,.5h13.43c2.19,0,3.81,.5,4.84,1.49,1.03,1,1.54,2.51,1.54,4.55,0,1.34-.29,2.43-.87,3.27-.58,.84-1.3,1.43-2.15,1.76,1.81,.49,3.04,1.7,3.69,3.63,.22,.69,.34,1.5,.34,2.42,0,2.19-.51,3.81-1.54,4.84-1.03,1.03-2.64,1.54-4.83,1.54h-14.44V.5Zm13.77,6.72c0-1.34-.67-2.01-2.01-2.01h-5.71v4.7h5.71c1.34,0,2.01-.67,2.01-2.01v-.67Zm1.01,9.4c0-1.34-.67-2.01-2.01-2.01h-6.72v4.7h6.72c1.34,0,2.01-.67,2.01-2.01v-.67Z"/>
  <path class="cls-1" d="M193.09,19.14h12.26v4.7h-18.3V.34h6.04V19.14Z"/>
  <path class="cls-1" d="M238.93,17.46c0,2.35-.53,4.06-1.59,5.12-1.06,1.06-2.77,1.6-5.12,1.6h-8.39c-2.35,0-4.06-.53-5.12-1.6-1.06-1.06-1.6-2.77-1.6-5.12V6.72c0-2.35,.53-4.06,1.6-5.12,1.06-1.06,2.77-1.6,5.12-1.6h8.39c2.35,0,4.06,.53,5.12,1.6,1.06,1.06,1.59,2.77,1.59,5.12v10.75Zm-6.04-10.75c0-1.34-.67-2.02-2.01-2.02h-5.71c-1.34,0-2.01,.67-2.01,2.02v10.75c0,1.34,.67,2.02,2.01,2.02h5.71c1.34,0,2.01-.67,2.01-2.02V6.72Z"/>
  <path class="cls-1" d="M270.49,23.51c-4.99,.45-9.13,.67-12.42,.67-2.19,0-3.81-.51-4.84-1.54-1.03-1.03-1.54-2.64-1.54-4.84V7.05c0-2.35,.53-4.06,1.6-5.12,1.06-1.06,2.77-1.6,5.12-1.6h12.09V5.04h-10.75c-1.34,0-2.01,.67-2.01,2.01v10.75c0,.52,.15,.92,.45,1.23,.3,.3,.69,.45,1.16,.45s.99,0,1.54-.02c.56-.01,1.14-.03,1.75-.05,.6-.02,1.21-.04,1.83-.07,.62-.02,1.41-.07,2.38-.13,.97-.07,2.19-.15,3.64-.24v4.53Z"/>
  <path class="cls-1" d="M287.65,23.84h-6.04V.34h6.04V9.57h3.02l5.24-9.23h6.38l-6.58,11.58,6.55,11.92h-6.38l-5.21-9.57h-3.02v9.57Z"/>
</svg>